<svg xmlns="http://www.w3.org/2000/svg" xmlns:xlink="http://www.w3.org/1999/xlink" width="512" height="512" viewBox="0 0 512 512">
  <defs>
    <clipPath id="clip-custom_1">
      <rect width="512" height="512"/>
    </clipPath>
  </defs>
  <g id="custom_1" data-name="custom – 1" clip-path="url(#clip-custom_1)">
    <g id="Group_1" data-name="Group 1" transform="translate(-40 -11)">
      <path id="logo" d="M19.044,42.786h.432a24.881,24.881,0,0,1,3.375-4.093,22.319,22.319,0,0,1,5.1-3.736,32.975,32.975,0,0,1,6.823-2.729,31.406,31.406,0,0,1,8.546-1.078A32.16,32.16,0,0,1,67.457,41.638,34.777,34.777,0,0,1,74.351,53.13a40.715,40.715,0,0,1,2.443,14.222,42.41,42.41,0,0,1-2.372,14.293A35.059,35.059,0,0,1,67.671,93.28a32.434,32.434,0,0,1-10.63,7.9,32.823,32.823,0,0,1-14.15,2.944,29.917,29.917,0,0,1-13.432-3.015,22.834,22.834,0,0,1-9.409-8.19h-.286V136.59H2.525V33.163ZM59.267,67.351a26.887,26.887,0,0,0-1.221-7.974,22.346,22.346,0,0,0-3.664-7.111,18.465,18.465,0,0,0-6.177-5.1,18.775,18.775,0,0,0-8.762-1.938,17.576,17.576,0,0,0-8.475,2.012,21.748,21.748,0,0,0-6.393,5.17A22.044,22.044,0,0,0,20.553,59.6a24.856,24.856,0,0,0-1.364,8.045,24.191,24.191,0,0,0,1.364,7.971,22.185,22.185,0,0,0,4.022,7.113,20.712,20.712,0,0,0,6.393,5.1,18.092,18.092,0,0,0,8.475,1.938,18.2,18.2,0,0,0,8.762-2.009,19.191,19.191,0,0,0,6.177-5.173A22.171,22.171,0,0,0,58.046,75.4a27.6,27.6,0,0,0,1.221-8.045Zm89.522-12.284a28.357,28.357,0,0,0-7.4-10.055,32.892,32.892,0,0,0-11.132-6.248A43.186,43.186,0,0,0,116.4,36.609q-2.731,0-6.105.286a29.913,29.913,0,0,0-5.818,1.008l1-21.98H147V.41H89.1L87.379,56a42.831,42.831,0,0,1,5.242-2.155q2.98-1.014,6.033-1.793a55.105,55.105,0,0,1,6.322-1.222,46.43,46.43,0,0,1,6.105-.43,36.124,36.124,0,0,1,8.188.932,19.681,19.681,0,0,1,7.254,3.3,17.71,17.71,0,0,1,5.244,6.248,21.126,21.126,0,0,1,2.011,9.769,21.511,21.511,0,0,1-1.509,8.26,17.345,17.345,0,0,1-4.092,6.1,17.715,17.715,0,0,1-6.035,3.735,20.617,20.617,0,0,1-7.326,1.295,19.7,19.7,0,0,1-11.923-3.664,20.029,20.029,0,0,1-7.183-9.7l-.191.071L83.043,88.446a33.431,33.431,0,0,0,9.794,10.291q8.761,5.958,21.548,5.962a41.965,41.965,0,0,0,14.364-2.441,34.732,34.732,0,0,0,11.779-7.041A33.208,33.208,0,0,0,148.5,83.941a37.236,37.236,0,0,0,2.943-15.156,33.367,33.367,0,0,0-2.657-13.718Z" transform="translate(101.475 198.59)" fill="#ed225d"/>
      <text id="Studio" transform="translate(283 298)" fill="#707070" font-size="73" font-family="SegoeUI, Segoe UI"><tspan x="0" y="0">Studio</tspan></text>
    </g>
  </g>
</svg>
