<svg xmlns="http://www.w3.org/2000/svg" xmlns:xlink="http://www.w3.org/1999/xlink" width="250" height="114" viewBox="0 0 250 114">
  <defs>
    <clipPath id="clip-custom_1">
      <rect width="250" height="114"/>
    </clipPath>
  </defs>
  <g id="custom_1" data-name="custom – 1" clip-path="url(#clip-custom_1)">
    <rect width="250" height="114" fill="#fff"/>
    <path id="logo_p5" d="M16.254,27.631v8h.359a20.679,20.679,0,0,1,2.805-3.4,18.549,18.549,0,0,1,4.239-3.1,27.406,27.406,0,0,1,5.671-2.268,26.1,26.1,0,0,1,7.1-.9A26.728,26.728,0,0,1,56.49,34.675a28.9,28.9,0,0,1,5.73,9.551,33.839,33.839,0,0,1,2.03,11.82,35.247,35.247,0,0,1-1.971,11.879,29.138,29.138,0,0,1-5.611,9.67,26.956,26.956,0,0,1-8.835,6.566,27.279,27.279,0,0,1-11.76,2.447A24.864,24.864,0,0,1,24.91,84.1,18.978,18.978,0,0,1,17.09,77.3h-.238V113.59H2.525V27.631Zm33.43,28.414a22.346,22.346,0,0,0-1.015-6.627,18.572,18.572,0,0,0-3.045-5.91A15.346,15.346,0,0,0,40.49,39.27a15.6,15.6,0,0,0-7.282-1.611,14.607,14.607,0,0,0-7.044,1.672,18.075,18.075,0,0,0-5.313,4.3A18.321,18.321,0,0,0,17.508,49.6a20.658,20.658,0,0,0-1.134,6.686,20.106,20.106,0,0,0,1.134,6.625,18.438,18.438,0,0,0,3.343,5.912,17.214,17.214,0,0,0,5.313,4.236,15.036,15.036,0,0,0,7.044,1.611A15.129,15.129,0,0,0,40.49,73a15.95,15.95,0,0,0,5.134-4.3,18.426,18.426,0,0,0,3.045-5.969,22.937,22.937,0,0,0,1.015-6.686Zm74.4-10.209a23.568,23.568,0,0,0-6.148-8.357,27.336,27.336,0,0,0-9.252-5.193,35.892,35.892,0,0,0-11.521-1.791q-2.27,0-5.074.238a24.861,24.861,0,0,0-4.835.838L88.091,13.3h34.5V.41H74.481l-1.433,46.2a35.6,35.6,0,0,1,4.357-1.791q2.477-.843,5.014-1.49a45.8,45.8,0,0,1,5.254-1.016,38.589,38.589,0,0,1,5.074-.357,30.023,30.023,0,0,1,6.805.775,16.357,16.357,0,0,1,6.029,2.746,14.719,14.719,0,0,1,4.358,5.193,17.557,17.557,0,0,1,1.671,8.119,17.878,17.878,0,0,1-1.254,6.865,14.416,14.416,0,0,1-3.4,5.072,14.723,14.723,0,0,1-5.016,3.1,17.135,17.135,0,0,1-6.089,1.076,16.377,16.377,0,0,1-9.909-3.045,16.646,16.646,0,0,1-5.97-8.059l-.159.059L69.444,73.577a27.785,27.785,0,0,0,8.14,8.553q7.281,4.952,17.909,4.955a34.877,34.877,0,0,0,11.938-2.029,28.866,28.866,0,0,0,9.79-5.852,27.6,27.6,0,0,0,6.627-9.371,30.947,30.947,0,0,0,2.446-12.6,27.731,27.731,0,0,0-2.208-11.4Z" transform="translate(60.475 0.59)" fill="#ed225d"/>
  </g>
</svg>
